<?xml version="1.0" standalone="no"?>
<!DOCTYPE svg PUBLIC "-//W3C//DTD SVG 20010904//EN"
 "http://www.w3.org/TR/2001/REC-SVG-20010904/DTD/svg10.dtd">
<svg version="1.0" xmlns="http://www.w3.org/2000/svg"
 width="360.000000pt" height="360.000000pt" viewBox="0 0 360.000000 360.000000"
 preserveAspectRatio="xMidYMid meet">
<metadata>
Created by potrace 1.14, written by Peter Selinger 2001-2017
</metadata>
<g transform="translate(0.000000,360.000000) scale(0.100000,-0.100000)"
fill="#000000" stroke="none">
<path d="M1640 2960 c-30 -10 -80 -22 -110 -26 -30 -3 -87 -18 -126 -33 -64
-25 -82 -39 -211 -167 -77 -76 -145 -148 -150 -159 -6 -11 -18 -51 -28 -89
-15 -62 -15 -85 -5 -210 6 -78 22 -197 35 -266 37 -192 37 -193 -10 -184 -27
5 -36 3 -41 -10 -6 -15 6 -120 27 -230 13 -70 76 -207 105 -232 21 -17 30 -40
44 -112 22 -110 108 -284 178 -361 56 -62 188 -162 257 -196 156 -77 355 -49
518 74 78 58 149 122 143 129 -2 2 -25 -13 -51 -32 -25 -20 -52 -36 -59 -36
-6 0 -29 -20 -51 -45 -44 -50 -75 -68 -150 -85 -118 -26 -224 -17 -248 21 -7
11 -15 19 -19 19 -18 0 -99 91 -118 134 -12 25 -26 46 -31 46 -5 0 -14 11 -19
25 -8 22 -12 24 -33 14 -28 -13 -67 2 -67 25 0 8 -8 31 -17 52 -9 22 -16 46
-14 56 1 9 -3 19 -9 23 -5 3 -10 23 -10 44 0 20 -5 42 -11 48 -5 5 -12 37 -15
69 -8 89 -26 145 -49 154 -21 8 -91 128 -80 138 3 3 -2 17 -12 31 -31 47 -12
134 27 124 11 -3 20 -9 20 -14 0 -4 13 -22 29 -39 24 -27 32 -30 48 -21 11 5
38 11 60 12 35 2 39 6 35 22 -4 17 -1 19 18 14 13 -3 31 -2 41 4 11 6 20 6 24
-1 3 -5 -6 -12 -20 -16 -24 -6 -36 -24 -15 -24 18 0 95 33 102 44 5 7 8 5 8
-4 0 -11 2 -12 8 -2 5 7 25 15 45 17 35 5 37 3 37 -22 0 -55 20 -6 32 76 9 64
9 88 0 102 -7 10 -12 27 -12 37 0 25 -28 48 -65 55 -16 3 -56 11 -87 17 -43 9
-66 9 -89 1 -21 -7 -36 -8 -44 -1 -12 10 -66 -1 -88 -18 -32 -24 -43 -20 -44
17 -1 20 2 41 7 46 7 10 -1 84 -18 163 -5 23 -6 42 -2 42 4 0 7 19 6 42 0 24
4 43 11 45 7 3 28 17 48 33 20 16 46 32 58 35 12 4 31 10 42 15 11 4 72 12
135 18 98 9 156 22 180 40 2 2 -2 7 -9 11 -14 9 78 27 112 22 10 -1 33 9 51
22 22 17 37 22 46 17 8 -5 19 -5 25 -1 16 12 89 31 118 31 14 0 29 5 32 10 11
18 25 11 22 -11 -3 -29 53 -62 85 -50 30 11 76 -12 88 -45 5 -13 21 -29 34
-34 30 -11 43 -34 52 -91 4 -24 13 -51 20 -59 8 -10 14 -50 17 -105 2 -54 10
-105 20 -128 11 -25 19 -82 23 -163 4 -68 11 -124 16 -124 4 0 8 10 8 23 0 12
7 35 15 51 8 15 13 32 10 36 -3 4 2 24 10 44 8 19 15 52 15 73 0 21 7 70 16
108 9 39 25 121 37 183 19 102 19 119 7 180 -7 37 -19 81 -26 98 -13 31 -209
254 -223 254 -4 0 -28 13 -52 29 -24 17 -66 35 -93 41 -27 6 -74 23 -105 38
-70 35 -122 49 -236 62 -126 14 -172 12 -235 -10z m-81 -1190 c8 -23 16 -30
37 -30 58 0 11 -13 -56 -16 l-70 -2 24 19 c14 11 28 28 31 39 9 28 21 25 34
-10z m-114 -40 c3 -5 -3 -10 -14 -10 -12 0 -21 5 -21 10 0 6 6 10 14 10 8 0
18 -4 21 -10z"/>
<path d="M1970 1960 c-8 -5 -34 -10 -58 -10 l-43 0 3 -52 c4 -55 24 -98 45
-98 7 0 13 -9 13 -20 0 -11 4 -20 10 -20 5 0 20 -11 34 -25 14 -14 32 -25 41
-25 19 0 19 10 0 24 -11 8 -13 21 -9 49 8 45 18 47 39 7 13 -24 22 -30 49 -30
32 0 66 24 66 48 0 16 10 15 29 -2 22 -18 61 -30 61 -17 0 16 -60 54 -115 73
-47 16 -48 17 -17 18 47 0 96 -23 121 -59 28 -39 46 -41 26 -2 -8 17 -40 45
-70 63 -30 18 -55 36 -55 39 0 4 -18 16 -40 28 -43 22 -105 27 -130 11z m10
-174 c0 -11 -19 -15 -25 -6 -3 5 1 10 9 10 9 0 16 -2 16 -4z"/>
<path d="M2567 1762 c-17 -19 -23 -52 -9 -52 4 0 17 16 30 35 24 38 9 50 -21
17z"/>
<path d="M2491 1704 c0 -11 3 -14 6 -6 3 7 2 16 -1 19 -3 4 -6 -2 -5 -13z"/>
<path d="M1693 1643 c-3 -10 -13 -26 -20 -35 -13 -15 -13 -16 5 -11 13 3 22
15 24 34 5 32 1 38 -9 12z"/>
<path d="M1615 1580 c-3 -5 -4 -13 -1 -18 2 -4 -13 -43 -35 -87 -21 -44 -34
-81 -29 -83 6 -2 10 -12 10 -23 0 -11 14 -38 30 -61 32 -44 39 -74 15 -64 -8
3 -29 0 -47 -6 -24 -9 -33 -8 -36 0 -5 16 -36 -16 -41 -42 -16 -96 9 -152 66
-143 26 5 36 1 48 -16 8 -12 15 -29 15 -39 0 -11 7 -18 19 -18 11 0 23 -5 26
-11 12 -18 -4 -23 -30 -9 -17 9 -29 10 -36 3 -15 -15 -1 -40 36 -63 27 -17 43
-20 83 -14 28 3 57 2 69 -4 14 -8 29 -6 61 8 23 11 42 24 42 29 0 18 -43 39
-93 46 -44 6 -97 39 -83 52 2 3 35 7 73 9 37 3 86 11 108 19 22 7 66 17 98 20
52 6 75 21 45 29 -93 25 -216 47 -239 42 -18 -3 -43 1 -64 11 -29 14 -41 15
-72 5 -33 -10 -40 -10 -50 5 -19 24 -16 36 6 30 12 -3 27 3 36 13 19 21 73 34
89 21 22 -17 55 -19 60 -4 4 8 4 19 1 24 -3 5 -1 18 5 29 15 27 -7 90 -31 90
-9 0 -32 17 -50 38 -25 27 -43 38 -68 39 -47 3 -58 16 -37 47 18 29 53 35 62
11 9 -22 24 -18 24 6 0 29 -18 59 -36 59 -8 0 -17 7 -20 15 -7 17 -20 20 -29
5z m-108 -462 c-3 -8 -6 -5 -6 6 -1 11 2 17 5 13 3 -3 4 -12 1 -19z"/>
<path d="M1884 1396 c-10 -8 -17 -17 -14 -20 10 -10 50 6 50 20 0 18 -11 18
-36 0z"/>
<path d="M1580 999 c0 -5 5 -7 10 -4 6 3 10 8 10 11 0 2 -4 4 -10 4 -5 0 -10
-5 -10 -11z"/>
</g>
</svg>
